<?xml version="1.0" standalone="no"?>
<!DOCTYPE svg PUBLIC "-//W3C//DTD SVG 20010904//EN"
 "http://www.w3.org/TR/2001/REC-SVG-20010904/DTD/svg10.dtd">
<svg version="1.0" xmlns="http://www.w3.org/2000/svg"
 width="1024.000000pt" height="1024.000000pt" viewBox="0 0 1024.000000 1024.000000"
 preserveAspectRatio="xMidYMid meet">
<metadata>
Created by potrace 1.14, written by Peter Selinger 2001-2017
</metadata>
<g transform="translate(0.000000,1024.000000) scale(0.100000,-0.100000)"
fill="#000000" stroke="none">
<path d="M4819 10236 c-2 -2 -51 -6 -109 -9 -123 -7 -337 -32 -465 -53 -49 -8
-102 -17 -116 -19 -14 -3 -97 -21 -185 -40 -277 -62 -508 -135 -764 -239 -384
-157 -724 -349 -1070 -604 -95 -70 -250 -194 -296 -237 -6 -5 -49 -44 -94 -85
-95 -85 -281 -269 -385 -381 -562 -602 -963 -1319 -1167 -2089 -36 -137 -33
-125 -43 -175 -4 -22 -9 -47 -11 -55 -12 -58 -44 -222 -49 -255 -13 -89 -15
-101 -30 -235 -3 -30 -8 -68 -10 -85 -26 -191 -26 -941 -1 -1095 2 -14 7 -57
10 -95 4 -39 8 -81 11 -95 2 -14 6 -43 10 -65 38 -259 93 -502 166 -740 42
-137 119 -352 150 -420 10 -22 30 -69 45 -105 105 -255 364 -700 556 -954 209
-276 451 -542 694 -765 32 -30 77 -71 99 -91 74 -68 269 -224 375 -301 598
-435 1238 -714 1955 -854 66 -12 143 -26 170 -29 28 -4 57 -9 65 -11 16 -4 66
-11 160 -20 30 -3 73 -8 95 -10 243 -28 821 -28 1080 1 22 2 63 7 90 10 489
54 1014 196 1453 393 406 182 857 469 1197 762 289 249 461 426 745 766 162
193 393 548 544 836 127 241 264 579 326 802 12 44 25 87 28 95 3 8 6 20 7 25
2 6 15 57 30 115 28 112 69 307 80 380 3 25 8 52 10 60 2 8 7 39 10 69 4 30 8
63 10 73 2 10 7 54 11 96 3 42 8 85 10 95 25 135 25 861 -1 1046 -2 19 1 41 7
48 6 8 7 13 2 12 -23 -4 -26 3 -8 22 14 15 15 20 4 17 -10 -2 -15 6 -17 27 0
17 -2 32 -3 35 -3 9 -8 43 -14 90 -16 137 -70 404 -121 595 -102 383 -268 786
-465 1131 -86 150 -291 457 -395 589 -233 298 -519 596 -815 849 -559 476
-1229 827 -1930 1012 -150 39 -498 107 -603 118 -31 3 -67 8 -80 10 -12 3 -58
8 -102 12 -44 3 -96 8 -115 10 -42 6 -736 14 -741 10z"/>
</g>
</svg>
